<?xml version="1.0" encoding="UTF-8"?>
<svg version="1.1" xmlns="http://www.w3.org/2000/svg" width="298" height="103">
<path d="M0 0 C41.91 0 83.82 0 127 0 C127 25.74 127 51.48 127 78 C85.09 78 43.18 78 0 78 C0 52.26 0 26.52 0 0 Z M29 24 C29 33.57 29 43.14 29 53 C29.66 53 30.32 53 31 53 C31 49.7 31 46.4 31 43 C32.546875 43.061875 34.09375 43.12375 35.6875 43.1875 C39.98884316 43.19358394 42.56724269 42.78911532 46 40 C48.39851321 38.01607489 48.39851321 38.01607489 48.4375 34.1875 C48.34906763 30.71337125 48.01721939 30.02312318 45.8125 27.0625 C40.21256572 22.95588153 36.27237172 24 29 24 Z M58 24 C58 33.57 58 43.14 58 53 C58.99 53 59.98 53 61 53 C61 43.43 61 33.86 61 24 C60.01 24 59.02 24 58 24 Z M73.0625 30.125 C71.04806023 35.57583702 71.33180845 40.87750918 73.0625 46.375 C75.97709846 50.32381082 79.2498764 52.47970635 84.0234375 53.3828125 C90.14296276 53.73450935 93.39402762 51.17164365 97.875 47.4375 C99.30815413 45.91047837 99.30815413 45.91047837 99 43 C95.81035932 43.76279268 95.81035932 43.76279268 93.9375 46.5625 C90.24918327 49.62301814 88.05588292 49.73836463 83.37890625 49.48046875 C81 49 81 49 77.9375 46.9375 C75.59019347 43.37868042 75 41.26436569 75 37 C76.09319818 32.90050682 77.37913679 30.4139088 81 28 C84.96885811 27.36094658 89.26707103 26.89966678 92.765625 29.12109375 C94.125 30.5 94.125 30.5 96 33 C96.99 32.67 97.98 32.34 99 32 C95.30830626 26.92435399 95.30830626 26.92435399 90 24 C82.75879977 23.2877508 78.13801446 24.55830673 73.0625 30.125 Z " fill="#1B1A61" transform="translate(12,13)"/>
<path d="M0 0 C0.99 0.33 1.98 0.66 3 1 C4.63580271 1.09544491 6.27522093 1.13373185 7.91379833 1.1386652 C8.93343959 1.14413964 9.95308085 1.14961409 11.00362033 1.15525442 C12.12714776 1.15623253 13.25067519 1.15721064 14.4082489 1.15821838 C16.19456442 1.16562535 16.19456442 1.16562535 18.01696712 1.17318195 C21.32805621 1.18591139 24.63910306 1.19418569 27.95020688 1.20060861 C31.51870692 1.20860604 35.08718553 1.22230608 38.65567017 1.23532104 C44.84017453 1.25709312 51.02468105 1.27523494 57.20920372 1.29092598 C66.15103549 1.31361795 75.09284354 1.34176171 84.03465519 1.37124526 C98.54140354 1.41892942 113.04816158 1.46219137 127.55493164 1.50268555 C141.64868932 1.54203628 155.74243838 1.58346149 169.83618164 1.62768555 C170.70460918 1.63040982 171.57303673 1.63313409 172.46778025 1.63594092 C176.82433319 1.64962033 181.180886 1.66334061 185.53743875 1.67708123 C221.69160894 1.79105896 257.84579639 1.89705316 294 2 C294 33.68 294 65.36 294 98 C196.98 98 99.96 98 0 98 C0 66.32 0 34.64 0 2 C-0.66 1.67 -1.32 1.34 -2 1 C-1.34 0.67 -0.68 0.34 0 0 Z M4 5 C4 34.7 4 64.4 4 95 C98.38 95 192.76 95 290 95 C290 65.3 290 35.6 290 5 C195.62 5 101.24 5 4 5 Z " fill="#2F2D73" transform="translate(2,2)"/>
<path d="M0 0 C7.51058099 -0.36937284 7.51058099 -0.36937284 9.65625 1.25 C11.93038782 4.21166786 12.78992497 7.48502014 14 11 C15.32 7.37 16.64 3.74 18 0 C20.64 0 23.28 0 26 0 C26.9765625 1.72526042 27.953125 3.45052083 28.9296875 5.17578125 C29.89428581 6.81982289 30.94267059 8.41400588 32 10 C32.20496094 9.36191406 32.40992188 8.72382812 32.62109375 8.06640625 C32.89050781 7.24011719 33.15992188 6.41382813 33.4375 5.5625 C33.70433594 4.73878906 33.97117188 3.91507813 34.24609375 3.06640625 C35 1 35 1 36 0 C41.73611111 -0.27314815 41.73611111 -0.27314815 44 0 C44.66 0.66 45.32 1.32 46 2 C45.66434487 8.41187364 43.42875913 14.3769747 41.4375 20.4375 C41.10814453 21.45521484 40.77878906 22.47292969 40.43945312 23.52148438 C39.63137923 26.01597334 38.81638359 28.50821822 38 31 C34.7 31 31.4 31 28 31 C26.35 27.7 24.7 24.4 23 21 C21.68 24.3 20.36 27.6 19 31 C16.03 31 13.06 31 10 31 C10 30.34 10 29.68 10 29 C9.34 29 8.68 29 8 29 C6.65717071 24.91972749 5.32739205 20.83531809 4 16.75 C3.6184375 15.59113281 3.236875 14.43226562 2.84375 13.23828125 C2.4828125 12.12324219 2.121875 11.00820313 1.75 9.859375 C1.41484375 8.83295898 1.0796875 7.80654297 0.734375 6.74902344 C0 4 0 4 0 0 Z " fill="#29278C" transform="translate(160,36)"/>
<path d="M0 0 C5.49407888 0.41348898 5.49407888 0.41348898 11 0.5625 C11.99 0.5625 12.98 0.5625 14 0.5625 C14.68885208 5.14071689 15.16762001 9.39426703 14.5 14 C13.68006639 17.39528957 13.68006639 17.39528957 15 19.5625 C15.039992 21.56210012 15.04346799 23.56297242 15 25.5625 C14.34 25.5625 13.68 25.5625 13 25.5625 C12.67 26.8825 12.34 28.2025 12 29.5625 C12.66 29.8925 13.32 30.2225 14 30.5625 C13.05125 30.81 12.1025 31.0575 11.125 31.3125 C7.91306809 32.2482077 7.91306809 32.2482077 6.625 34.6875 C6.315625 35.615625 6.315625 35.615625 6 36.5625 C2.89448334 36.5625 1.64738916 36.0231285 -1 34.5625 C-1 34.2325 -1 33.9025 -1 33.5625 C-2.65 33.2325 -4.3 32.9025 -6 32.5625 C-6 32.2325 -6 31.9025 -6 31.5625 C-5.34773438 31.47613281 -4.69546875 31.38976562 -4.0234375 31.30078125 C2.1276818 30.31188449 5.67644896 29.1077716 10 24.5625 C10.33 23.5725 10.66 22.5825 11 21.5625 C10.236875 22.34625 9.47375 23.13 8.6875 23.9375 C5.11587449 27.42606445 3.0665459 28.86240052 -1.875 28.9375 C-5.2184266 28.84489781 -6.93440374 28.59393154 -10 27.125 C-12.82531551 23.5050645 -13.8300574 20.14322561 -14 15.5625 C-13.27971673 12.02223977 -11.88268498 9.37655288 -9.19140625 6.89453125 C-5.35578539 4.56307543 -1.33933776 4.9105478 3 5.5625 C6.125 7.4375 6.125 7.4375 8 9.5625 C8 10.2225 8 10.8825 8 11.5625 C8.66 11.2325 9.32 10.9025 10 10.5625 C6.76090423 6.05064573 6.76090423 6.05064573 2 3.5625 C-3.25894117 3.22321347 -7.0455333 3.58071332 -12 5.5625 C-11.67 3.9125 -11.34 2.2625 -11 0.5625 C-7.22213051 -0.69678983 -3.89914987 -0.30180253 0 0 Z " fill="#29278D" transform="translate(100,34.4375)"/>
<path d="M0 0 C1.134375 0.020625 2.26875 0.04125 3.4375 0.0625 C3.7675 1.0525 4.0975 2.0425 4.4375 3.0625 C5.0975 3.0625 5.7575 3.0625 6.4375 3.0625 C6.4375 5.7025 6.4375 8.3425 6.4375 11.0625 C8.4175 10.7325 10.3975 10.4025 12.4375 10.0625 C12.4375 6.7625 12.4375 3.4625 12.4375 0.0625 C13.71625 0.000625 14.995 -0.06125 16.3125 -0.125 C17.39144531 -0.17720703 17.39144531 -0.17720703 18.4921875 -0.23046875 C19.13414062 -0.13378906 19.77609375 -0.03710938 20.4375 0.0625 C22.82862209 3.64918313 22.67131027 5.22646569 22.6328125 9.48046875 C22.62636719 10.73408203 22.61992187 11.98769531 22.61328125 13.27929688 C22.59652344 14.58962891 22.57976562 15.89996094 22.5625 17.25 C22.55246639 18.58527987 22.5433412 19.92056689 22.53515625 21.25585938 C22.51155292 24.52492015 22.47862594 27.79362028 22.4375 31.0625 C19.7975 31.0625 17.1575 31.0625 14.4375 31.0625 C14.4375 30.4025 14.4375 29.7425 14.4375 29.0625 C13.7775 29.0625 13.1175 29.0625 12.4375 29.0625 C12.4375 26.4225 12.4375 23.7825 12.4375 21.0625 C10.4575 21.0625 8.4775 21.0625 6.4375 21.0625 C6.4375 24.3625 6.4375 27.6625 6.4375 31.0625 C3.4675 31.0625 0.4975 31.0625 -2.5625 31.0625 C-2.5625 30.4025 -2.5625 29.7425 -2.5625 29.0625 C-3.2225 29.0625 -3.8825 29.0625 -4.5625 29.0625 C-4.58715881 25.09319011 -4.60534023 21.12390966 -4.61743164 17.15454102 C-4.62247057 15.80329614 -4.62930177 14.45205674 -4.63793945 13.10083008 C-4.65002419 11.16229566 -4.65519828 9.223722 -4.66015625 7.28515625 C-4.66539307 6.11734619 -4.67062988 4.94953613 -4.67602539 3.74633789 C-4.50310279 -0.34170118 -4.2325551 0.07425535 0 0 Z " fill="#201E85" transform="translate(211.5625,35.9375)"/>
<path d="M0 0 C71.28 0 142.56 0 216 0 C216.33 0.99 216.66 1.98 217 3 C145.39 3 73.78 3 0 3 C0 2.01 0 1.02 0 0 Z " fill="#26245A" transform="translate(43,97)"/>
<path d="M0 0 C3.62484999 -0.08681476 7.24943443 -0.14032721 10.875 -0.1875 C12.42380859 -0.22520508 12.42380859 -0.22520508 14.00390625 -0.26367188 C14.99003906 -0.27333984 15.97617187 -0.28300781 16.9921875 -0.29296875 C17.90339355 -0.3086792 18.81459961 -0.32438965 19.75341797 -0.34057617 C20.49479004 -0.22818604 21.23616211 -0.1157959 22 0 C24.35437203 3.53155804 24.49068309 4.83941632 24 9 C22.25 11.9921875 22.25 11.9921875 20 14.875 C19.2575 15.84179688 18.515 16.80859375 17.75 17.8046875 C16.88375 18.89136719 16.88375 18.89136719 16 20 C16.94875 20.103125 17.8975 20.20625 18.875 20.3125 C22 21 22 21 24 24 C24 26.31 24 28.62 24 31 C16.41 31 8.82 31 1 31 C1 30.34 1 29.68 1 29 C0.34 29 -0.32 29 -1 29 C-1.50509438 24.32787697 -0.68751585 21.91854716 2.19921875 18.20703125 C2.62847656 17.68496094 3.05773437 17.16289063 3.5 16.625 C3.92925781 16.07972656 4.35851562 15.53445312 4.80078125 14.97265625 C5.85431825 13.63817606 6.92544214 12.31761261 8 11 C6.865625 10.855625 5.73125 10.71125 4.5625 10.5625 C1 10 1 10 0 9 C-0.07179964 7.48071962 -0.08392007 5.95832518 -0.0625 4.4375 C-0.05347656 3.61121094 -0.04445312 2.78492188 -0.03515625 1.93359375 C-0.02355469 1.29550781 -0.01195312 0.65742187 0 0 Z " fill="#07057A" transform="translate(251,36)"/>
<path d="M0 0 C0.99 0.33 1.98 0.66 3 1 C5.56634861 1.22718496 8.11678107 1.41608184 10.6875 1.5625 C11.7403418 1.62727539 11.7403418 1.62727539 12.81445312 1.69335938 C14.54275206 1.7991736 16.2713511 1.90006581 18 2 C18 2.99 18 3.98 18 5 C13.38 5 8.76 5 4 5 C4 34.7 4 64.4 4 95 C16.21 95 28.42 95 41 95 C41 95.99 41 96.98 41 98 C27.47 98 13.94 98 0 98 C0 66.32 0 34.64 0 2 C-0.66 1.67 -1.32 1.34 -2 1 C-1.34 0.67 -0.68 0.34 0 0 Z " fill="#2B2A2C" transform="translate(2,2)"/>
<path d="M0 0 C1.4608905 0.00018127 1.4608905 0.00018127 2.95129395 0.00036621 C4.46753357 0.00804016 4.46753357 0.00804016 6.0144043 0.01586914 C6.95296265 0.01687622 7.891521 0.0178833 8.85852051 0.0189209 C12.35190052 0.02413806 15.84526306 0.03809931 19.33862305 0.05102539 C31.06393555 0.08196289 31.06393555 0.08196289 43.02612305 0.11352539 C43.02612305 25.85352539 43.02612305 51.59352539 43.02612305 78.11352539 C8.02612305 78.11352539 8.02612305 78.11352539 4.02612305 76.11352539 C15.90612305 76.11352539 27.78612305 76.11352539 40.02612305 76.11352539 C39.69612305 52.02352539 39.36612305 27.93352539 39.02612305 3.11352539 C38.36612305 3.11352539 37.70612305 3.11352539 37.02612305 3.11352539 C36.69612305 3.77352539 36.36612305 4.43352539 36.02612305 5.11352539 C35.53748779 4.78682861 35.04885254 4.46013184 34.54541016 4.12353516 C30.96582114 2.68843876 27.51084332 2.88731918 23.7175293 2.95336914 C22.91379379 2.95857071 22.11005829 2.96377228 21.28196716 2.96913147 C18.71733354 2.98691215 16.15310298 3.01806416 13.58862305 3.05102539 C11.02775268 3.07871178 8.46694226 3.10343477 5.9059906 3.12220764 C4.31435474 3.1343884 2.72274825 3.15191601 1.13124084 3.17552185 C-2.70698343 3.20997934 -6.2444232 3.05569832 -9.97387695 2.11352539 C-9.97387695 1.78352539 -9.97387695 1.45352539 -9.97387695 1.11352539 C-6.58727503 0.3509988 -3.46877124 -0.00915243 0 0 Z " fill="#7070BE" transform="translate(95.973876953125,12.886474609375)"/>
<path d="M0 0 C0 31.68 0 63.36 0 96 C-36 96 -36 96 -42 95 C-42 94.67 -42 94.34 -42 94 C-37.75054147 92.96012403 -33.64072144 92.87010369 -29.29296875 92.90234375 C-28.20487663 92.90446617 -28.20487663 92.90446617 -27.09480286 92.90663147 C-24.7923255 92.91220069 -22.48994765 92.92474739 -20.1875 92.9375 C-18.62044412 92.94251898 -17.0533867 92.94708119 -15.48632812 92.95117188 C-11.65751411 92.96216002 -7.82877389 92.97940327 -4 93 C-4.00666183 91.87913498 -4.01332367 90.75826996 -4.02018738 89.60343933 C-4.08093807 79.05292878 -4.12594356 68.50245359 -4.15543652 57.95180798 C-4.17110874 52.52728691 -4.19237547 47.10290675 -4.22631836 41.6784668 C-4.2588562 36.44596784 -4.27684128 31.21360464 -4.28463173 25.98101234 C-4.29018527 23.98226089 -4.30102965 21.98351706 -4.31719017 19.98482323 C-4.33889032 17.19048234 -4.34197004 14.39670618 -4.34057617 11.60229492 C-4.351362 10.77151428 -4.36214783 9.94073364 -4.3732605 9.08477783 C-4.34250914 3.4072663 -4.34250914 3.4072663 -2.53995228 1.26390553 C-1 0 -1 0 0 0 Z " fill="#A6A6DD" transform="translate(296,4)"/>
<path d="M0 0 C33.99 0 67.98 0 103 0 C103 0.66 103 1.32 103 2 C103.99 2.495 103.99 2.495 105 3 C70.35 3 35.7 3 0 3 C0 2.01 0 1.02 0 0 Z " fill="#0A0815" transform="translate(20,4)"/>
<path d="M0 0 C7.4224689 -0.36503945 7.4224689 -0.36503945 9.75708008 1.1105957 C11.60516353 3.91992939 11.23985054 6.09027545 11.07421875 9.41796875 C10.99204102 11.29838867 10.99204102 11.29838867 10.90820312 13.21679688 C10.83537109 14.52712891 10.76253906 15.83746094 10.6875 17.1875 C10.62422635 18.52271971 10.56236076 19.85800694 10.50195312 21.19335938 C10.34849635 24.46316913 10.18061151 27.7315959 10 31 C3.9453125 31.1953125 3.9453125 31.1953125 2 31 C0 29 0 29 -0.22705078 26.11083984 C-0.21657715 24.90637207 -0.20610352 23.7019043 -0.1953125 22.4609375 C-0.18564453 20.50800781 -0.18564453 20.50800781 -0.17578125 18.515625 C-0.15906929 17.13541405 -0.14213939 15.75520571 -0.125 14.375 C-0.11497006 12.98698548 -0.10584423 11.59896411 -0.09765625 10.2109375 C-0.07401863 6.80711974 -0.04106867 3.40364494 0 0 Z " fill="#343280" transform="translate(238,36)"/>
<path d="M0 0 C1.134375 0.020625 2.26875 0.04125 3.4375 0.0625 C3.7675 1.0525 4.0975 2.0425 4.4375 3.0625 C5.0975 3.0625 5.7575 3.0625 6.4375 3.0625 C6.4375 5.7025 6.4375 8.3425 6.4375 11.0625 C8.4175 11.0625 10.3975 11.0625 12.4375 11.0625 C11.4375 12.0625 10.4375 13.0625 9.4375 14.0625 C10.4275 14.7225 11.4175 15.3825 12.4375 16.0625 C12.4375 16.7225 12.4375 17.3825 12.4375 18.0625 C9.4675 18.0625 6.4975 18.0625 3.4375 18.0625 C3.4375 21.6925 3.4375 25.3225 3.4375 29.0625 C0.7975 29.0625 -1.8425 29.0625 -4.5625 29.0625 C-4.58715881 25.09319011 -4.60534023 21.12390966 -4.61743164 17.15454102 C-4.62247057 15.80329614 -4.62930177 14.45205674 -4.63793945 13.10083008 C-4.65002419 11.16229566 -4.65519828 9.223722 -4.66015625 7.28515625 C-4.66539307 6.11734619 -4.67062988 4.94953613 -4.67602539 3.74633789 C-4.50310279 -0.34170118 -4.2325551 0.07425535 0 0 Z " fill="#060379" transform="translate(211.5625,35.9375)"/>
<path d="M0 0 C30.36 0 60.72 0 92 0 C91.67 31.02 91.34 62.04 91 94 C90.67 94 90.34 94 90 94 C90 63.97 90 33.94 90 3 C76.14 3 62.28 3 48 3 C31.97913435 2.58920857 15.98639948 2.11643503 0 1 C0 0.67 0 0.34 0 0 Z " fill="#4240A5" transform="translate(203,4)"/>
<path d="M0 0 C32.34 0 64.68 0 98 0 C98.495 1.485 98.495 1.485 99 3 C66.66 3 34.32 3 1 3 C0.67 2.01 0.34 1.02 0 0 Z " fill="#323174" transform="translate(161,97)"/>
<path d="M0 0 C7.26 0 14.52 0 22 0 C22 7.875 22 7.875 18.5 11.9375 C17.8503125 12.70964844 17.200625 13.48179688 16.53125 14.27734375 C16.0259375 14.84582031 15.520625 15.41429687 15 16 C13.35 15.67 11.7 15.34 10 15 C10 13.02 10 11.04 10 9 C6.7 8.67 3.4 8.34 0 8 C0 5.36 0 2.72 0 0 Z " fill="#2A2889" transform="translate(251,36)"/>
<path d="M0 0 C1.77007714 -0.08114106 3.54122098 -0.13925505 5.3125 -0.1875 C6.29863281 -0.22230469 7.28476562 -0.25710937 8.30078125 -0.29296875 C11 0 11 0 12.8046875 1.39453125 C14.26373861 3.35423715 14.78439806 4.55651139 15 7 C14.375 9.625 14.375 9.625 13 12 C9.11664798 14.33001121 5.44660431 14.25653486 1 14 C0 13 0 13 -0.09765625 10.05859375 C-0.08605469 8.86363281 -0.07445312 7.66867188 -0.0625 6.4375 C-0.05347656 5.23996094 -0.04445312 4.04242188 -0.03515625 2.80859375 C-0.02355469 1.88175781 -0.01195312 0.95492187 0 0 Z " fill="#242349" transform="translate(43,40)"/>
<path d="M0 0 C1.54571278 2.31856917 2.79618552 4.50638429 4 7 C4.99 7 5.98 7 7 7 C7.92470553 11.71599818 8.22923777 14.67265609 6 19 C3.03 19 0.06 19 -3 19 C-5.48633787 12.63497506 -6.3406872 8.703436 -5 2 C-4.01 2 -3.02 2 -2 2 C-1.34 1.34 -0.68 0.68 0 0 Z " fill="#1A1786" transform="translate(171,46)"/>
<path d="M0 0 C7.5073168 -0.0254785 15.01462233 -0.04292065 22.52197266 -0.05493164 C25.07275815 -0.05994205 27.62354079 -0.0667522 30.17431641 -0.07543945 C33.85319728 -0.08764972 37.53203997 -0.09326138 41.2109375 -0.09765625 C42.34050873 -0.10281754 43.47007996 -0.10797882 44.63388062 -0.11329651 C51.1531954 -0.11375229 57.52870686 0.19823329 64 1 C64 1.33 64 1.66 64 2 C50.32987928 3.12941478 36.70823049 3.11649348 23 3.0625 C20.76041767 3.05747197 18.52083425 3.05291138 16.28125 3.04882812 C10.85414221 3.03793269 5.42707642 3.02129913 0 3 C0 2.01 0 1.02 0 0 Z " fill="#181536" transform="translate(43,97)"/>
<path d="M0 0 C2.31 0 4.62 0 7 0 C6.033761 3.34414631 5.02833178 6.67443162 4 10 C3.64035156 11.19302734 3.64035156 11.19302734 3.2734375 12.41015625 C2.5625 14.5625 2.5625 14.5625 1 18 C-1.09765625 18.71484375 -1.09765625 18.71484375 -3 19 C-5.80396138 14.05183286 -4.77350507 9.38317715 -4 4 C-3.34 4 -2.68 4 -2 4 C-2 3.34 -2 2.68 -2 2 C-1.34 2 -0.68 2 0 2 C0 1.34 0 0.68 0 0 Z " fill="#181681" transform="translate(197,38)"/>
<path d="M0 0 C1.65 0 3.3 0 5 0 C5 8.58 5 17.16 5 26 C3.35 26 1.7 26 0 26 C0 17.42 0 8.84 0 0 Z " fill="#05037E" transform="translate(240,38)"/>
<path d="M0 0 C15.84 0 31.68 0 48 0 C48 0.66 48 1.32 48 2 C48.66 2.33 49.32 2.66 50 3 C45.45085022 3.02517837 40.90174312 3.04307982 36.35253906 3.05493164 C34.81281831 3.05988508 33.27310206 3.06664968 31.73339844 3.07543945 C21.11178583 3.13444841 10.59230695 2.80001501 0 2 C0 1.34 0 0.68 0 0 Z " fill="#1A1843" transform="translate(75,4)"/>
<path d="M0 0 C1.91015625 0.23046875 1.91015625 0.23046875 3.91015625 2.23046875 C3.57450112 8.64234239 1.33891538 14.60744345 -0.65234375 20.66796875 C-1.14637695 22.19454102 -1.14637695 22.19454102 -1.65039062 23.75195312 C-2.45846452 26.24644209 -3.27346016 28.73868697 -4.08984375 31.23046875 C-7.38984375 31.23046875 -10.68984375 31.23046875 -14.08984375 31.23046875 C-14.08984375 30.57046875 -14.08984375 29.91046875 -14.08984375 29.23046875 C-10.62484375 28.73546875 -10.62484375 28.73546875 -7.08984375 28.23046875 C-6.85273682 27.51391113 -6.61562988 26.79735352 -6.37133789 26.05908203 C-5.2998993 22.82402534 -4.22615114 19.5897399 -3.15234375 16.35546875 C-2.77916016 15.22753906 -2.40597656 14.09960938 -2.02148438 12.9375 C-1.66376953 11.86113281 -1.30605469 10.78476562 -0.9375 9.67578125 C-0.60758057 8.68078613 -0.27766113 7.68579102 0.06225586 6.66064453 C0.91015625 4.23046875 0.91015625 4.23046875 1.91015625 2.23046875 C-0.39984375 2.23046875 -2.70984375 2.23046875 -5.08984375 2.23046875 C-5.08984375 2.89046875 -5.08984375 3.55046875 -5.08984375 4.23046875 C-5.74984375 4.23046875 -6.40984375 4.23046875 -7.08984375 4.23046875 C-7.41984375 4.89046875 -7.74984375 5.55046875 -8.08984375 6.23046875 C-6.97909637 0.04201908 -6.40293139 0.12782622 0 0 Z " fill="#C7C6E3" transform="translate(202.08984375,35.76953125)"/>
<path d="M0 0 C2.60334924 2.71182212 2.99456691 3.89133813 3.1875 7.75 C3.0946875 9.35875 3.0946875 9.35875 3 11 C2.34 11 1.68 11 1 11 C0.67 12.32 0.34 13.64 0 15 C0.66 15.33 1.32 15.66 2 16 C1.05125 16.2475 0.1025 16.495 -0.875 16.75 C-4.08693191 17.6857077 -4.08693191 17.6857077 -5.375 20.125 C-5.58125 20.74375 -5.7875 21.3625 -6 22 C-9.10551666 22 -10.35261084 21.4606285 -13 20 C-13 19.67 -13 19.34 -13 19 C-14.65 18.67 -16.3 18.34 -18 18 C-18 17.67 -18 17.34 -18 17 C-17.34773438 16.91363281 -16.69546875 16.82726562 -16.0234375 16.73828125 C-9.8723182 15.74938449 -6.32355104 14.5452716 -2 10 C-1.67 9.01 -1.34 8.02 -1 7 C-1.99 7.33 -2.98 7.66 -4 8 C-4 7.34 -4 6.68 -4 6 C-3.34 5.67 -2.68 5.34 -2 5 C-2.66 4.34 -3.32 3.68 -4 3 C-3.34 3 -2.68 3 -2 3 C-1.67 2.34 -1.34 1.68 -1 1 C-0.67 0.67 -0.34 0.34 0 0 Z " fill="#4241A3" transform="translate(112,49)"/>
<path d="M0 0 C0.495 1.485 0.495 1.485 1 3 C-15.17 3 -31.34 3 -48 3 C-43.58219847 0.79109924 -40.06446053 0.55486133 -35.25 0.375 C-34.39051758 0.33705322 -33.53103516 0.29910645 -32.64550781 0.26000977 C-21.76882483 -0.16749622 -10.88263915 -0.09158099 0 0 Z " fill="#413F95" transform="translate(259,97)"/>
<path d="M0 0 C3.64581598 -0.0293908 7.29160087 -0.04692874 10.9375 -0.0625 C11.95908203 -0.07087891 12.98066406 -0.07925781 14.03320312 -0.08789062 C19.33132089 -0.10481752 24.46969467 0.07512023 29.72436523 0.74389648 C34.15436921 1.2424561 38.61045632 1.37351276 43.0625 1.5625 C44.02349609 1.60568359 44.98449219 1.64886719 45.97460938 1.69335938 C48.31630277 1.79821132 50.65807929 1.90037788 53 2 C53 2.33 53 2.66 53 3 C45.77344508 3.02529174 38.5469015 3.04284219 31.3203125 3.05493164 C28.86034722 3.05996989 26.40038495 3.0668006 23.94042969 3.07543945 C20.41079975 3.08752723 16.88120931 3.09323329 13.3515625 3.09765625 C12.24632233 3.10281754 11.14108215 3.10797882 10.00234985 3.11329651 C8.98144257 3.11337204 7.96053528 3.11344757 6.90869141 3.11352539 C6.00712311 3.115746 5.10555481 3.11796661 4.17666626 3.12025452 C2 3 2 3 0 2 C0 1.34 0 0.68 0 0 Z " fill="#252257" transform="translate(123,4)"/>
<path d="M0 0 C0.99 0.33 1.98 0.66 3 1 C2.01 1.495 2.01 1.495 1 2 C1 33.68 1 65.36 1 98 C0.67 98 0.34 98 0 98 C0 66.32 0 34.64 0 2 C-0.66 1.67 -1.32 1.34 -2 1 C-1.34 0.67 -0.68 0.34 0 0 Z " fill="#FBFBFB" transform="translate(2,2)"/>
<path d="M0 0 C4.95 0 9.9 0 15 0 C15 24.75 15 49.5 15 75 C14.67 75 14.34 75 14 75 C13.67 50.91 13.34 26.82 13 2 C12.34 2 11.68 2 11 2 C10.67 2.66 10.34 3.32 10 4 C9.1646875 3.505 9.1646875 3.505 8.3125 3 C5.69715478 1.8690399 3.8193354 1.84337026 1 2 C0.67 1.34 0.34 0.68 0 0 Z " fill="#3733BC" transform="translate(122,14)"/>
<path d="M0 0 C0.72445312 0.02707031 1.44890625 0.05414063 2.1953125 0.08203125 C5.13074715 0.24992511 7.44712082 0.39576005 9.95703125 2.00390625 C11.26993496 4.20191359 11.50296008 5.89084913 11.6875 8.4375 C11.78611328 9.64986328 11.78611328 9.64986328 11.88671875 10.88671875 C11.92410156 11.50160156 11.96148437 12.11648437 12 12.75 C10.35 13.08 8.7 13.41 7 13.75 C7.33 12.43 7.66 11.11 8 9.75 C8 10.41 8 11.07 8 11.75 C8.66 11.42 9.32 11.09 10 10.75 C6.76090423 6.23814573 6.76090423 6.23814573 2 3.75 C-3.25894117 3.41071347 -7.0455333 3.76821332 -12 5.75 C-11.67 4.1 -11.34 2.45 -11 0.75 C-7.24169717 -0.50276761 -3.88986593 -0.2284085 0 0 Z " fill="#47479E" transform="translate(100,34.25)"/>
<path d="M0 0 C0.99 0 1.98 0 3 0 C2.67 0.61875 2.34 1.2375 2 1.875 C0.03421195 8.01808764 0.08408192 15.16816385 3 21 C4.88370471 22.3169667 4.88370471 22.3169667 7 23 C7.99 23.66 8.98 24.32 10 25 C7.44980222 25.91078492 6.40445022 26.17843392 3.875 25.0625 C2.946875 24.5365625 2.946875 24.5365625 2 24 C1.34 24 0.68 24 0 24 C-0.12375 23.360625 -0.2475 22.72125 -0.375 22.0625 C-0.58125 21.381875 -0.7875 20.70125 -1 20 C-1.66 19.67 -2.32 19.34 -3 19 C-2.88573491 16.58239124 -2.75900339 14.16652782 -2.625 11.75 C-2.5940625 11.06808594 -2.563125 10.38617188 -2.53125 9.68359375 C-2.31740626 6.01260962 -1.98922945 3.13748384 0 0 Z " fill="#221F6A" transform="translate(84,41)"/>
<path d="M0 0 C0.7031987 0.00141495 1.4063974 0.0028299 2.13090515 0.00428772 C4.36205419 0.00985516 6.59310039 0.0224015 8.82421875 0.03515625 C10.3430975 0.04017546 11.86197784 0.04473763 13.38085938 0.04882812 C17.09117887 0.05981389 20.80143876 0.07705591 24.51171875 0.09765625 C24.18171875 0.75765625 23.85171875 1.41765625 23.51171875 2.09765625 C16.97920462 3.30766473 10.4500302 3.24809123 3.82421875 3.22265625 C2.80521484 3.22652344 1.78621094 3.23039062 0.73632812 3.234375 C-0.24916016 3.23308594 -1.23464844 3.23179688 -2.25 3.23046875 C-3.13647217 3.22934082 -4.02294434 3.22821289 -4.9362793 3.22705078 C-7.54100571 3.09498295 -9.9476293 2.67265041 -12.48828125 2.09765625 C-12.48828125 1.76765625 -12.48828125 1.43765625 -12.48828125 1.09765625 C-8.27694572 0.07404316 -4.32638261 -0.01723658 0 0 Z " fill="#282678" transform="translate(98.48828125,12.90234375)"/>
<path d="M0 0 C0.99 0.66 1.98 1.32 3 2 C3.2487793 4.79736328 3.2487793 4.79736328 3.07421875 8.3203125 C2.99204102 10.20556641 2.99204102 10.20556641 2.90820312 12.12890625 C2.83496498 13.46095566 2.76139294 14.79298675 2.6875 16.125 C2.62424797 17.46477825 2.56238166 18.80462269 2.50195312 20.14453125 C2.34828831 23.4305942 2.18037667 26.71531242 2 30 C-0.64 30 -3.28 30 -6 30 C-6.33 29.34 -6.66 28.68 -7 28 C-4.69 28 -2.38 28 0 28 C0 18.76 0 9.52 0 0 Z " fill="#C2C2E0" transform="translate(246,37)"/>
<path d="M0 0 C1.12138618 0.00212242 1.12138618 0.00212242 2.26542664 0.00428772 C4.6392324 0.00985861 7.01294178 0.02240565 9.38671875 0.03515625 C11.00195176 0.04017502 12.61718625 0.04473726 14.23242188 0.04882812 C18.1797243 0.0598185 22.12695522 0.07706293 26.07421875 0.09765625 C26.07421875 0.42765625 26.07421875 0.75765625 26.07421875 1.09765625 C23.43421875 1.42765625 20.79421875 1.75765625 18.07421875 2.09765625 C18.07421875 2.42765625 18.07421875 2.75765625 18.07421875 3.09765625 C14.03256736 3.12681356 9.99094325 3.14450798 5.94921875 3.16015625 C4.23605469 3.17272461 4.23605469 3.17272461 2.48828125 3.18554688 C1.3796875 3.18876953 0.27109375 3.19199219 -0.87109375 3.1953125 C-2.39500732 3.20316772 -2.39500732 3.20316772 -3.94970703 3.21118164 C-7.01692851 3.09417934 -9.91211259 2.66542042 -12.92578125 2.09765625 C-12.92578125 1.76765625 -12.92578125 1.43765625 -12.92578125 1.09765625 C-8.60805881 0.03386956 -4.41835869 -0.03176535 0 0 Z " fill="#4B49A3" transform="translate(266.92578125,96.90234375)"/>
<path d="M0 0 C4.20831868 -0.02914348 8.41661122 -0.04684712 12.625 -0.0625 C14.40970703 -0.07506836 14.40970703 -0.07506836 16.23046875 -0.08789062 C17.38417969 -0.09111328 18.53789063 -0.09433594 19.7265625 -0.09765625 C21.31331787 -0.10551147 21.31331787 -0.10551147 22.93212891 -0.11352539 C26.03362346 0.00124422 28.95347657 0.42303718 32 1 C32 1.33 32 1.66 32 2 C21.312837 2.79585256 10.71600323 3.12825004 0 3 C0 2.01 0 1.02 0 0 Z " fill="#0F0D26" transform="translate(43,97)"/>
<path d="M0 0 C10.51952349 -0.3712773 10.51952349 -0.3712773 12.8046875 1.39453125 C14.26373861 3.35423715 14.78439806 4.55651139 15 7 C14.3125 9.6875 14.3125 9.6875 13 12 C10.875 12.8125 10.875 12.8125 9 13 C9 3 9 3 10 1 C7.03 1 4.06 1 1 1 C1 4.96 1 8.92 1 13 C0.67 13 0.34 13 0 13 C0 8.71 0 4.42 0 0 Z " fill="#767490" transform="translate(43,40)"/>
<path d="M0 0 C0.66 0.33 1.32 0.66 2 1 C2.50630789 6.33205494 1.25713268 8.70179875 -2 12.875 C-2.7425 13.84179688 -3.485 14.80859375 -4.25 15.8046875 C-4.8275 16.52914062 -5.405 17.25359375 -6 18 C-4.02 18.33 -2.04 18.66 0 19 C0 19.33 0 19.66 0 20 C-3.96 20 -7.92 20 -12 20 C-6.24107143 11.16071429 -6.24107143 11.16071429 -3.1875 7.75 C-0.99778 4.99720914 -0.30472608 3.45356224 0 0 Z " fill="#DCDCF0" transform="translate(273,38)"/>
<path d="M0 0 C3.33331439 -0.02937438 6.66659483 -0.04692334 10 -0.0625 C10.93457031 -0.07087891 11.86914062 -0.07925781 12.83203125 -0.08789062 C18.32274401 -0.10708892 23.56866481 0.1865807 29 1 C29 1.33 29 1.66 29 2 C24.9269597 2.97685365 21.131793 3.11545444 16.94921875 3.09765625 C16.29041214 3.0962413 15.63160553 3.09482635 14.95283508 3.09336853 C12.86434238 3.087805 10.77595989 3.07525947 8.6875 3.0625 C7.26497551 3.05748028 5.84244934 3.0529182 4.41992188 3.04882812 C0.94657923 3.03784757 -2.52669961 3.02060835 -6 3 C-6 2.67 -6 2.34 -6 2 C-4.02 1.67 -2.04 1.34 0 1 C0 0.67 0 0.34 0 0 Z " fill="#222148" transform="translate(97,97)"/>
<path d="M0 0 C2 2 2 2 2.22705078 4.79736328 C2.21134033 6.54122314 2.21134033 6.54122314 2.1953125 8.3203125 C2.18564453 10.20556641 2.18564453 10.20556641 2.17578125 12.12890625 C2.15902344 13.44761719 2.14226562 14.76632813 2.125 16.125 C2.11496983 17.46483721 2.10584404 18.80468152 2.09765625 20.14453125 C2.07402075 23.42986573 2.04107234 26.71484465 2 30 C-0.64 30 -3.28 30 -6 30 C-6 29.34 -6 28.68 -6 28 C-4.02 28 -2.04 28 0 28 C0 18.76 0 9.52 0 0 Z " fill="#BEBEDF" transform="translate(232,37)"/>
<path d="M0 0 C1.134375 0.020625 2.26875 0.04125 3.4375 0.0625 C3.7675 1.0525 4.0975 2.0425 4.4375 3.0625 C5.0975 3.0625 5.7575 3.0625 6.4375 3.0625 C6.4375 5.7025 6.4375 8.3425 6.4375 11.0625 C5.4475 11.0625 4.4575 11.0625 3.4375 11.0625 C3.4375 8.0925 3.4375 5.1225 3.4375 2.0625 C1.1275 2.0625 -1.1825 2.0625 -3.5625 2.0625 C-3.5625 10.9725 -3.5625 19.8825 -3.5625 29.0625 C-3.8925 29.0625 -4.2225 29.0625 -4.5625 29.0625 C-4.58715881 25.09319011 -4.60534023 21.12390966 -4.61743164 17.15454102 C-4.62247057 15.80329614 -4.62930177 14.45205674 -4.63793945 13.10083008 C-4.65002419 11.16229566 -4.65519828 9.223722 -4.66015625 7.28515625 C-4.66539307 6.11734619 -4.67062988 4.94953613 -4.67602539 3.74633789 C-4.50310279 -0.34170118 -4.2325551 0.07425535 0 0 Z " fill="#AEADD1" transform="translate(211.5625,35.9375)"/>
<path d="M0 0 C5.28 0 10.56 0 16 0 C16 0.66 16 1.32 16 2 C21.28 2 26.56 2 32 2 C32 2.33 32 2.66 32 3 C21.77 3 11.54 3 1 3 C0.67 2.01 0.34 1.02 0 0 Z " fill="#0E0D26" transform="translate(59,4)"/>
<path d="M0 0 C2 3 2 3 1.609375 5.33984375 C1.32578125 6.19707031 1.0421875 7.05429687 0.75 7.9375 C0.47671875 8.79214844 0.2034375 9.64679687 -0.078125 10.52734375 C-1 13 -1 13 -3 17 C-5.97 17 -8.94 17 -12 17 C-12 16.34 -12 15.68 -12 15 C-9.69 15 -7.38 15 -5 15 C-4.80664062 14.25234375 -4.61328125 13.5046875 -4.4140625 12.734375 C-4.15367187 11.74953125 -3.89328125 10.7646875 -3.625 9.75 C-3.36976563 8.77546875 -3.11453125 7.8009375 -2.8515625 6.796875 C-2.10401491 4.34162697 -1.22876183 2.24382595 0 0 Z " fill="#CFCFE9" transform="translate(182,50)"/>
<path d="M0 0 C3.93743833 -0.05797565 7.87476719 -0.09358789 11.8125 -0.125 C12.93205078 -0.14175781 14.05160156 -0.15851563 15.20507812 -0.17578125 C16.27822266 -0.18222656 17.35136719 -0.18867187 18.45703125 -0.1953125 C19.9416687 -0.21102295 19.9416687 -0.21102295 21.45629883 -0.22705078 C24 0 24 0 27 2 C23.80703175 3.06432275 21.79555059 3.03788336 18.45703125 2.87890625 C17.38388672 2.83056641 16.31074219 2.78222656 15.20507812 2.73242188 C14.08552734 2.67634766 12.96597656 2.62027344 11.8125 2.5625 C10.11577148 2.48418945 10.11577148 2.48418945 8.38476562 2.40429688 C5.5895672 2.27456193 2.7947206 2.13959359 0 2 C0 1.34 0 0.68 0 0 Z " fill="#121139" transform="translate(75,4)"/>
<path d="M0 0 C3.63 0 7.26 0 11 0 C10.979375 0.94875 10.95875 1.8975 10.9375 2.875 C10.77448174 5.90666283 10.77448174 5.90666283 12 8 C12.66 8.33 13.32 8.66 14 9 C11 10 11 10 8.8125 9.0625 C8.214375 8.711875 7.61625 8.36125 7 8 C7 8.66 7 9.32 7 10 C5.68 10.33 4.36 10.66 3 11 C4.37154504 8.04590299 5.98863724 5.55991624 8 3 C6.865625 2.87625 5.73125 2.7525 4.5625 2.625 C3.386875 2.41875 2.21125 2.2125 1 2 C0.67 1.34 0.34 0.68 0 0 Z " fill="#7170AF" transform="translate(251,44)"/>
<path d="M0 0 C2.125 0.375 2.125 0.375 4 1 C3.01 1.33 2.02 1.66 1 2 C0.87625 2.86625 0.7525 3.7325 0.625 4.625 C0 8 0 8 -1.1875 11 C-2.18676283 14.68958583 -1.48127331 16.54369562 0 20 C-2.85978281 17.69372354 -3.92456509 16.26653669 -4.9375 12.6875 C-5.01466297 8.13488484 -4.11529662 5.99556028 -2 2 C-1.34 1.34 -0.68 0.68 0 0 Z " fill="#615E96" transform="translate(91,41)"/>
<path d="M0 0 C0.66 0.33 1.32 0.66 2 1 C2 3.31 2 5.62 2 8 C-5.59 8 -13.18 8 -21 8 C-21 7.34 -21 6.68 -21 6 C-14.07 6 -7.14 6 0 6 C0 4.02 0 2.04 0 0 Z " fill="#DBDAEE" transform="translate(273,59)"/>
<path d="M0 0 C2.64 0 5.28 0 8 0 C8.33 1.98 8.66 3.96 9 6 C6.69 6.66 4.38 7.32 2 8 C0.23537317 4.91190305 0 3.76687864 0 0 Z " fill="#080577" transform="translate(160,36)"/>
<path d="M0 0 C0.66 0 1.32 0 2 0 C1.95875 0.763125 1.9175 1.52625 1.875 2.3125 C1.77919176 5.22718416 1.77919176 5.22718416 4 8 C3.625 10.6875 3.625 10.6875 3 13 C1.68 13.33 0.36 13.66 -1 14 C-2.25664978 11.09399739 -3 9.20395416 -3 6 C-2.34 5.67 -1.68 5.34 -1 5 C-0.34444881 2.47266765 -0.34444881 2.47266765 0 0 Z " fill="#07057D" transform="translate(195,43)"/>
<path d="M0 0 C1.91015625 0.23046875 1.91015625 0.23046875 3.91015625 2.23046875 C3.55654027 6.82747655 2.49028051 10.91146244 0.91015625 15.23046875 C0.58015625 15.23046875 0.25015625 15.23046875 -0.08984375 15.23046875 C-0.14431422 13.81423659 -0.18284883 12.39738684 -0.21484375 10.98046875 C-0.23804688 10.1915625 -0.26125 9.40265625 -0.28515625 8.58984375 C-0.07268155 6.02314934 0.6236152 4.43886205 1.91015625 2.23046875 C-0.39984375 2.23046875 -2.70984375 2.23046875 -5.08984375 2.23046875 C-5.08984375 2.89046875 -5.08984375 3.55046875 -5.08984375 4.23046875 C-5.74984375 4.23046875 -6.40984375 4.23046875 -7.08984375 4.23046875 C-7.41984375 4.89046875 -7.74984375 5.55046875 -8.08984375 6.23046875 C-6.97909637 0.04201908 -6.40293139 0.12782622 0 0 Z " fill="#DDDCED" transform="translate(202.08984375,35.76953125)"/>
<path d="M0 0 C0.99 0.33 1.98 0.66 3 1 C3 6 3 6 2 8 C3.32 8.33 4.64 8.66 6 9 C1.545 9.495 1.545 9.495 -3 10 C-3.36923077 4.58461538 -3.36923077 4.58461538 -1.5 1.625 C-1.005 1.08875 -0.51 0.5525 0 0 Z " fill="#312F8A" transform="translate(253,55)"/>
<path d="M0 0 C2.64 0 5.28 0 8 0 C8 0.66 8 1.32 8 2 C6.02 2 4.04 2 2 2 C2 5.3 2 8.6 2 12 C-0.97 12 -3.94 12 -7 12 C-7 11.34 -7 10.68 -7 10 C-4.69 10 -2.38 10 0 10 C0 6.7 0 3.4 0 0 Z " fill="#E3E3F2" transform="translate(216,55)"/>
<path d="M0 0 C-1.20381448 2.49361571 -2.45428722 4.68143083 -4 7 C-5.65 6.67 -7.3 6.34 -9 6 C-9 4.02 -9 2.04 -9 0 C-5.52176885 -1.15941038 -3.54104422 -0.70820884 0 0 Z " fill="#0D0A81" transform="translate(270,45)"/>
<path d="M0 0 C-1.32 0.33 -2.64 0.66 -4 1 C-4 10.57 -4 20.14 -4 30 C-4.33 30 -4.66 30 -5 30 C-5.33 22.08 -5.66 14.16 -6 6 C-6.99 6.495 -6.99 6.495 -8 7 C-7.67 4.69 -7.34 2.38 -7 0 C-3.98968256 -0.93423645 -3.13349732 -1.04449911 0 0 Z " fill="#181652" transform="translate(73,36)"/>
<path d="M0 0 C1.485 0.99 1.485 0.99 3 2 C4.65549531 2.38499891 6.3222433 2.72793135 8 3 C7.67 4.65 7.34 6.3 7 8 C4.36 8 1.72 8 -1 8 C-0.34 6.68 0.32 5.36 1 4 C0.34 3.67 -0.32 3.34 -1 3 C-0.67 2.01 -0.34 1.02 0 0 Z " fill="#070475" transform="translate(170,57)"/>
<path d="M0 0 C1.17949219 0.10183594 2.35898438 0.20367187 3.57421875 0.30859375 C4.47785156 0.39238281 5.38148437 0.47617187 6.3125 0.5625 C5.9825 1.2225 5.6525 1.8825 5.3125 2.5625 C2.4765625 3.16015625 2.4765625 3.16015625 -1.0625 3.625 C-4.4368945 4.07766268 -7.45599904 4.48533301 -10.6875 5.5625 C-10.3575 3.9125 -10.0275 2.2625 -9.6875 0.5625 C-6.14075997 -0.61974668 -3.71227005 -0.33079634 0 0 Z " fill="#27257D" transform="translate(98.6875,34.4375)"/>
<path d="M0 0 C5.28 0 10.56 0 16 0 C16 0.33 16 0.66 16 1 C10.60539047 3.27141454 5.73842251 3.20413361 0 3 C0 2.01 0 1.02 0 0 Z " fill="#0B091D" transform="translate(43,97)"/>
<path d="M0 0 C1.60727327 0.22917968 3.21087416 0.48420802 4.8125 0.75 C5.70582031 0.88921875 6.59914063 1.0284375 7.51953125 1.171875 C10.50572658 2.168841 11.38380344 3.3582435 13 6 C12.34 6 11.68 6 11 6 C10.67 6.66 10.34 7.32 10 8 C9.01 8 8.02 8 7 8 C7 7.34 7 6.68 7 6 C6.34 6 5.68 6 5 6 C5 5.01 5 4.02 5 3 C3.35 2.67 1.7 2.34 0 2 C0 1.34 0 0.68 0 0 Z " fill="#252389" transform="translate(91,66)"/>
<path d="M0 0 C0 3 0 3 -1 6 C-5.62 6 -10.24 6 -15 6 C-15 8.97 -15 11.94 -15 15 C-15.33 15 -15.66 15 -16 15 C-16 11.7 -16 8.4 -16 5 C-15.09636719 4.89042969 -14.19273438 4.78085937 -13.26171875 4.66796875 C-12.08222656 4.50941406 -10.90273438 4.35085937 -9.6875 4.1875 C-7.92986328 3.96126953 -7.92986328 3.96126953 -6.13671875 3.73046875 C-3.00579726 3.00135005 -1.90354807 2.50828536 0 0 Z " fill="#ABAABA" transform="translate(59,51)"/>
<path d="M0 0 C0 0.99 0 1.98 0 3 C-2.1363573 5.12145248 -3.51437091 5.92965186 -6.5078125 6.36328125 C-7.80332031 6.33814453 -7.80332031 6.33814453 -9.125 6.3125 C-9.99382812 6.30863281 -10.86265625 6.30476563 -11.7578125 6.30078125 C-14 6 -14 6 -16 4 C-12.04 4 -8.08 4 -4 4 C-3.67 3.01 -3.34 2.02 -3 1 C-2.01 0.67 -1.02 0.34 0 0 Z " fill="#8684B5" transform="translate(107,57)"/>
<path d="M0 0 C0.66 0.33 1.32 0.66 2 1 C1.67 2.98 1.34 4.96 1 7 C-2.3 7 -5.6 7 -9 7 C-9 6.34 -9 5.68 -9 5 C-7.329375 4.87625 -7.329375 4.87625 -5.625 4.75 C-1.94246056 4.42126213 -1.94246056 4.42126213 -0.5625 1.9375 C-0.376875 1.298125 -0.19125 0.65875 0 0 Z " fill="#D8D8EC" transform="translate(197,60)"/>
<path d="M0 0 C3 3.75 3 3.75 3 6 C3.598125 6.28875 4.19625 6.5775 4.8125 6.875 C7 8 7 8 10 10 C7.44980222 10.91078492 6.40445022 11.17843392 3.875 10.0625 C3.25625 9.711875 2.6375 9.36125 2 9 C1.34 9 0.68 9 0 9 C0 6.03 0 3.06 0 0 Z " fill="#7170A3" transform="translate(84,56)"/>
<path d="M0 0 C0.66 0.33 1.32 0.66 2 1 C2.22022756 4.23000416 2.3082321 6.39975854 0.8125 9.3125 C-1.40664722 11.37860258 -3.02545866 11.67842796 -6 12 C-5.65066406 11.55269531 -5.30132812 11.10539062 -4.94140625 10.64453125 C-2.31101372 7.14976044 -0.40792858 4.48721443 0 0 Z " fill="#D0CFE9" transform="translate(273,38)"/>
<path d="M0 0 C2 1 2 1 6 5 C1.71 5 -2.58 5 -7 5 C-4.51068299 2.51068299 -3.16125753 1.22371259 0 0 Z " fill="#0F0E33" transform="translate(47,32)"/>
<path d="M0 0 C0.33 0 0.66 0 1 0 C1.33 4.95 1.66 9.9 2 15 C3.65 15 5.3 15 7 15 C7 15.66 7 16.32 7 17 C4.69 17 2.38 17 0 17 C0 11.39 0 5.78 0 0 Z " fill="#08056A" transform="translate(208,48)"/>
<path d="M0 0 C2.2328877 2.2328877 2.36778152 2.91909815 2.75 5.9375 C2.84796875 6.62714844 2.9459375 7.31679688 3.046875 8.02734375 C3 10 3 10 1 13 C0.43983252 11.59054634 -0.09748502 10.1719969 -0.625 8.75 C-0.92664063 7.96109375 -1.22828125 7.1721875 -1.5390625 6.359375 C-2.09752136 3.50082285 -1.53690745 2.41040161 0 0 Z " fill="#2B28A4" transform="translate(112,34)"/>
<path d="M0 0 C1.75570312 0.02707031 1.75570312 0.02707031 3.546875 0.0546875 C4.88492188 0.08949219 4.88492188 0.08949219 6.25 0.125 C5.92 0.785 5.59 1.445 5.25 2.125 C-0.40122578 3.21558743 -5.08713138 3.03510388 -10.75 2.125 C-7.15537669 -0.13498595 -4.18404325 -0.08368087 0 0 Z " fill="#322F8E" transform="translate(116.75,12.875)"/>
<path d="M0 0 C0 3.96 0 7.92 0 12 C-0.33 12 -0.66 12 -1 12 C-1.10957031 11.38511719 -1.21914063 10.77023438 -1.33203125 10.13671875 C-1.56986328 8.92435547 -1.56986328 8.92435547 -1.8125 7.6875 C-1.96332031 6.88699219 -2.11414062 6.08648437 -2.26953125 5.26171875 C-3.07572236 2.76554413 -4.02052002 1.67577894 -6 0 C-4 -1 -4 -1 0 0 Z " fill="#7A7A96" transform="translate(61,38)"/>
<path d="M0 0 C2.64 0 5.28 0 8 0 C7.01 0.33 6.02 0.66 5 1 C5 1.66 5 2.32 5 3 C4.34 3 3.68 3 3 3 C2.34 4.32 1.68 5.64 1 7 C0.67 4.69 0.34 2.38 0 0 Z " fill="#7B79AD" transform="translate(160,36)"/>
<path d="M0 0 C1.32 0.66 2.64 1.32 4 2 C4 3.65 4 5.3 4 7 C3.67 6.34 3.34 5.68 3 5 C1.02 5.99 1.02 5.99 -1 7 C-1.04254356 5.00045254 -1.04080783 2.99958364 -1 1 C-0.67 0.67 -0.34 0.34 0 0 Z " fill="#0C0B28" transform="translate(36,35)"/>
<path d="M0 0 C2.475 0.495 2.475 0.495 5 1 C5.33 3.31 5.66 5.62 6 8 C4.35 8.33 2.7 8.66 1 9 C1.33 7.68 1.66 6.36 2 5 C2 5.66 2 6.32 2 7 C2.66 6.67 3.32 6.34 4 6 C2.68 4.02 1.36 2.04 0 0 Z " fill="#A8A7CE" transform="translate(106,39)"/>
<path d="M0 0 C2.05078125 0.03255208 4.1015625 0.06510417 6.15234375 0.09765625 C6.15234375 0.75765625 6.15234375 1.41765625 6.15234375 2.09765625 C3.84234375 2.09765625 1.53234375 2.09765625 -0.84765625 2.09765625 C-0.84765625 2.75765625 -0.84765625 3.41765625 -0.84765625 4.09765625 C-1.50765625 4.09765625 -2.16765625 4.09765625 -2.84765625 4.09765625 C-3.17765625 4.75765625 -3.50765625 5.41765625 -3.84765625 6.09765625 C-2.77957394 0.14691194 -2.77957394 0.14691194 0 0 Z " fill="#8482AD" transform="translate(197.84765625,35.90234375)"/>
<path d="M0 0 C1.32 0.66 2.64 1.32 4 2 C3.67 3.32 3.34 4.64 3 6 C1.68 6 0.36 6 -1 6 C-0.67 4.02 -0.34 2.04 0 0 Z " fill="#52539E" transform="translate(103,41)"/>
<path d="M0 0 C0.99 0 1.98 0 3 0 C2.690625 0.61875 2.38125 1.2375 2.0625 1.875 C0.5960722 6.18802294 0.33380974 10.4759996 0 15 C-0.33 15 -0.66 15 -1 15 C-1.02693575 12.87506859 -1.04636628 10.75004088 -1.0625 8.625 C-1.07410156 7.44164062 -1.08570312 6.25828125 -1.09765625 5.0390625 C-1 2 -1 2 0 0 Z " fill="#9391B6" transform="translate(84,41)"/>
<path d="M0 0 C1.32 0 2.64 0 4 0 C3.71872579 1.48117801 3.42466268 2.95993249 3.125 4.4375 C2.96257813 5.26121094 2.80015625 6.08492187 2.6328125 6.93359375 C2.31957031 7.95646484 2.31957031 7.95646484 2 9 C1.01 9.495 1.01 9.495 0 10 C0 6.7 0 3.4 0 0 Z " fill="#121031" transform="translate(44,41)"/>
<path d="M0 0 C1 2 1 2 0.5 4.0625 C-1 6 -1 6 -4.625 6.75 C-5.73875 6.8325 -6.8525 6.915 -8 7 C-7.236875 6.401875 -6.47375 5.80375 -5.6875 5.1875 C-3.6516425 3.53040668 -1.8021721 1.89702326 0 0 Z " fill="#908EC0" transform="translate(110,59)"/>
<path d="M0 0 C-0.66 1.32 -1.32 2.64 -2 4 C-3.98 3.34 -5.96 2.68 -8 2 C-8 1.34 -8 0.68 -8 0 C-5.13822943 -1.43088528 -3.06624227 -0.59991697 0 0 Z " fill="#080676" transform="translate(270,45)"/>
<path d="M0 0 C1.98 0 3.96 0 6 0 C5.67 0.99 5.34 1.98 5 3 C2.4375 4.1875 2.4375 4.1875 0 5 C0 3.35 0 1.7 0 0 Z " fill="#030305" transform="translate(12,13)"/>
<path d="M0 0 C0.66 1.32 1.32 2.64 2 4 C1.34 4 0.68 4 0 4 C-0.33 5.32 -0.66 6.64 -1 8 C-0.34 8.33 0.32 8.66 1 9 C-0.65 9 -2.3 9 -4 9 C-3.34 7.02 -2.68 5.04 -2 3 C-1.34 3 -0.68 3 0 3 C0 2.01 0 1.02 0 0 Z " fill="#2A279A" transform="translate(113,56)"/>
<path d="M0 0 C0.99 0.495 0.99 0.495 2 1 C2 1.66 2 2.32 2 3 C3.32 3 4.64 3 6 3 C5.67 3.99 5.34 4.98 5 6 C3.35 5.67 1.7 5.34 0 5 C0 3.35 0 1.7 0 0 Z " fill="#050286" transform="translate(213,47)"/>
<path d="M0 0 C0.90105469 0.00902344 1.80210938 0.01804688 2.73046875 0.02734375 C3.41753906 0.03894531 4.10460937 0.05054688 4.8125 0.0625 C4.8125 0.3925 4.8125 0.7225 4.8125 1.0625 C4.12542969 1.19527344 3.43835938 1.32804687 2.73046875 1.46484375 C1.37888672 1.72974609 1.37888672 1.72974609 0 2 C-1.33998047 2.26103516 -1.33998047 2.26103516 -2.70703125 2.52734375 C-5.30147171 3.03991153 -5.30147171 3.03991153 -8.1875 4.0625 C-8.1875 3.0725 -8.1875 2.0825 -8.1875 1.0625 C-5.17259443 0.05753148 -3.14568308 -0.04085303 0 0 Z " fill="#8383AD" transform="translate(96.1875,35.9375)"/>
<path d="M0 0 C1.32 0 2.64 0 4 0 C4 1.32 4 2.64 4 4 C2.35 4.33 0.7 4.66 -1 5 C-0.67 3.35 -0.34 1.7 0 0 Z " fill="#292777" transform="translate(84,37)"/>
<path d="M0 0 C2.0625 0.4375 2.0625 0.4375 4 1 C3.01 1.33 2.02 1.66 1 2 C0.26676204 4.01508358 0.26676204 4.01508358 0 6 C-0.33 5.34 -0.66 4.68 -1 4 C-1.99 4.495 -1.99 4.495 -3 5 C-1.125 1.125 -1.125 1.125 0 0 Z " fill="#706FA2" transform="translate(91,41)"/>
</svg>
